<svg xmlns="http://www.w3.org/2000/svg" xmlns:xlink="http://www.w3.org/1999/xlink" width="1em" height="1em" preserveAspectRatio="xMidYMid meet" viewBox="0 0 24 24" style="-ms-transform: rotate(360deg); -webkit-transform: rotate(360deg); transform: rotate(360deg);"><g fill="none"><path d="M0 0h24v24H0z"/><path fill="currentColor" d="M10.24 3.209a5.35 5.35 0 0 1 1.82 1.254a5.865 5.865 0 0 1 1.805-1.21c.997-.413 2.14-.487 3.135.087c.994.574 1.503 1.602 1.644 2.671c.09.688.038 1.428-.147 2.17a5.34 5.34 0 0 1 1.996.947C21.373 9.812 22 10.816 22 12c0 1.178-.62 2.178-1.493 2.86a5.317 5.317 0 0 1-1.928.939c.197.721.25 1.453.152 2.138c-.156 1.097-.71 2.134-1.73 2.723c-1.027.593-2.21.55-3.241.131a5.346 5.346 0 0 1-1.819-1.254c-.55.53-1.165.946-1.806 1.21c-.997.413-2.14.487-3.135-.087c-.994-.574-1.502-1.602-1.644-2.671a5.864 5.864 0 0 1 .147-2.17a5.346 5.346 0 0 1-1.996-.947C2.627 14.188 2 13.184 2 12c0-1.178.62-2.177 1.493-2.86A5.316 5.316 0 0 1 5.42 8.2a5.316 5.316 0 0 1-.152-2.138C5.425 4.966 5.979 3.929 7 3.34c1.026-.592 2.209-.55 3.24-.131ZM12 8a4 4 0 1 0 0 8a4 4 0 0 0 0-8Zm0 2a2 2 0 1 1 0 4a2 2 0 0 1 0-4Z"/></g></svg>