<svg xmlns="http://www.w3.org/2000/svg" xmlns:xlink="http://www.w3.org/1999/xlink" width="1em" height="1em" preserveAspectRatio="xMidYMid meet" viewBox="0 0 256 256" style="-ms-transform: rotate(360deg); -webkit-transform: rotate(360deg); transform: rotate(360deg);"><path fill="currentColor" d="M247 123.3a11.7 11.7 0 0 0-7.4-5.6a77.8 77.8 0 0 0-31.9-1c4.5-19.8 1.6-35.3-1.4-44.3a12 12 0 0 0-13.9-8.1a80.3 80.3 0 0 0-28.7 12.8A91 91 0 0 0 135.2 40a12 12 0 0 0-14.4 0a91 91 0 0 0-28.5 37.1a80.3 80.3 0 0 0-28.7-12.8a12 12 0 0 0-13.9 8.1c-3 9-5.9 24.5-1.4 44.3a77.8 77.8 0 0 0-31.9 1a11.7 11.7 0 0 0-7.4 5.6a12.3 12.3 0 0 0-1.2 9.2c3.4 12 13.8 35 45.3 53.2S112.9 204 128 204c15.1 0 43.2 0 74.9-18.3s41.9-41.2 45.3-53.2a12.3 12.3 0 0 0-1.2-9.2Zm-52.9-51.1a3.9 3.9 0 0 1 4.6 2.6c2.9 9 5.8 25-.3 45.6c-.1.2-.1.4-.2.6a101.2 101.2 0 0 1-10 22.6a128 128 0 0 1-33.5 37.7l-2.5 1.8c10.1-13.3 19.8-33.7 19.8-63.1a111.3 111.3 0 0 0-5.4-35.2a71.6 71.6 0 0 1 27.5-12.6Zm-68.5-25.8a4 4 0 0 1 4.8 0C140.5 54 164 76.2 164 120c0 23.1-6.4 42.9-18.9 59a75 75 0 0 1-17.1 16.3a75 75 0 0 1-17.1-16.3C98.4 162.9 92 143.1 92 120c0-43.8 23.5-66 33.6-73.6ZM57.3 74.8a3.9 3.9 0 0 1 4.6-2.6a71.6 71.6 0 0 1 27.5 12.6A111.3 111.3 0 0 0 84 120c0 29.4 9.7 49.8 19.8 63.1l-2.5-1.8a128 128 0 0 1-33.5-37.7a101.8 101.8 0 0 1-10-22.7l-.2-.5c-6.1-20.6-3.2-36.6-.3-45.6Zm-41.8 55.5a3.9 3.9 0 0 1 .4-3a4.5 4.5 0 0 1 2.4-1.9a72.9 72.9 0 0 1 32.4-.1a119.4 119.4 0 0 0 10.1 22.3c12.9 22.4 31.7 38.4 46.9 47.6a124.2 124.2 0 0 1-50.6-16.4C28 162 18.6 141.2 15.5 130.3Zm225 0c-3.1 10.9-12.5 31.7-41.6 48.5a124.2 124.2 0 0 1-50.6 16.4c15.2-9.2 34-25.2 46.9-47.6a119.4 119.4 0 0 0 10.1-22.3a72.9 72.9 0 0 1 32.4.1a4.5 4.5 0 0 1 2.4 1.9a3.9 3.9 0 0 1 .4 3Z"/></svg>