<?xml version="1.0" encoding="UTF-8" standalone="no"?>
<!DOCTYPE svg PUBLIC "-//W3C//DTD SVG 1.1//EN" "http://www.w3.org/Graphics/SVG/1.1/DTD/svg11.dtd">
<!-- Created with Vectornator (http://vectornator.io/) -->
<svg height="100%" stroke-miterlimit="10" style="fill-rule:nonzero;clip-rule:evenodd;stroke-linecap:round;stroke-linejoin:round;" version="1.1" viewBox="0 0 140.34 154.47" width="100%" xml:space="preserve" xmlns="http://www.w3.org/2000/svg" xmlns:vectornator="http://vectornator.io" xmlns:xlink="http://www.w3.org/1999/xlink">
<defs/>
<clipPath id="ArtboardFrame">
<rect height="154.47" width="140.34" x="0" y="0"/>
</clipPath>
<g clip-path="url(#ArtboardFrame)" id="Untitled" vectornator:layerName="Untitled">
<g opacity="1">
<path d="M68.2013 0.37134C56.1014 2.57134 48.5016 11.8713 48.5016 24.2713C48.5016 45.7713 73.6012 56.2713 89.1009 41.2713C98.9008 31.7713 99.1008 17.5713 89.5009 7.47134C84.001 1.57134 76.3011-1.02866 68.2013 0.37134ZM79.2011 7.67134C83.001 9.27134 88.601 15.2713 89.5009 18.8713C90.6009 23.0713 89.3009 31.2713 87.201 34.0713C82.501 40.4713 74.6012 43.3713 67.8013 41.3713C56.2014 37.8713 51.1015 25.3713 57.3014 14.9713C61.6014 7.47134 71.2012 4.27134 79.2011 7.67134Z" fill="#629aba" fill-rule="nonzero" opacity="1" stroke="none"/>
<path d="M8.90214 40.7713C8.10215 40.9713 5.70219 41.3713 3.70222 41.7713L0.00227449 42.3713L2.00224 49.5713C5.90219 63.6713 11.6021 73.0713 22.2019 82.9713C31.2018 91.3713 41.8017 97.0713 54.4015 100.171L58.4014 101.171L58.1014 110.071C57.6014 124.271 63.1013 142.871 70.6012 152.171L72.5012 154.471L75.1012 150.571C83.101 138.471 86.301 127.571 86.401 112.071L86.401 100.371L93.1009 98.1713C112.801 91.8713 130.4 74.4713 137 54.8713C141.7 40.7713 141.8 41.5713 135 40.7713C116.201 38.5713 93.9009 46.5713 79.3011 60.7713L71.9012 67.9713L68.3013 63.6713C61.6014 55.3713 44.7016 45.2713 32.7018 42.3713C27.8019 41.1713 11.5021 40.0713 8.90214 40.7713ZM32.4018 47.9713C38.9017 49.5713 47.8016 53.7713 54.3015 58.2713C59.0014 61.4713 69.2012 71.9713 68.7012 73.0713C68.5013 73.4713 67.2013 75.9713 65.8013 78.7713C64.3013 81.4713 62.4013 86.2713 61.4014 89.2713C60.4014 92.2713 59.4014 95.0713 59.0014 95.4713C58.0014 96.4713 44.6016 91.8713 38.2017 88.2713C25.6019 81.2713 15.602 69.9713 9.80213 56.4713C6.00218 47.4713 6.00218 46.4713 10.7021 46.0713C16.302 45.4713 25.7019 46.2713 32.4018 47.9713ZM133.8 46.9713C134.7 47.6713 130.5 58.5713 126.9 64.4713C120.1 76.1713 106.601 87.6713 94.5009 92.0713C84.601 95.7713 85.101 95.8713 83.901 91.0713C83.201 88.6713 81.2011 83.6713 79.3011 79.9713C75.3012 71.8713 75.3012 71.9713 84.201 63.5713C91.7009 56.5713 98.7008 52.3713 107.801 49.2713C117.001 46.1713 131.6 44.8713 133.8 46.9713ZM76.8011 86.6713C80.4011 96.5713 80.5011 95.9713 75.2012 96.5713C72.5012 96.8713 69.2012 96.8713 67.7013 96.5713C65.3013 96.0713 65.0013 95.6713 65.5013 93.3713C65.8013 91.9713 67.4013 87.8713 69.1012 84.2713C71.9012 78.1713 72.1012 77.8713 73.5012 79.6713C74.3012 80.7713 75.7011 83.9713 76.8011 86.6713ZM81.4011 106.571C82.201 112.671 80.7011 124.871 78.3011 131.871C76.5011 137.171 73.1012 144.271 72.4012 144.271C71.5012 144.271 67.1013 134.771 65.5013 129.271C63.6013 122.971 62.3013 108.671 63.3013 104.971C63.9013 102.571 64.4013 102.371 70.7012 101.971C74.4012 101.771 78.2011 101.571 79.1011 101.471C80.4011 101.271 80.9011 102.371 81.4011 106.571Z" fill="#629aba" fill-rule="nonzero" opacity="1" stroke="none"/>
</g>
</g>
</svg>
